# xmcd
#
# Track frame offsets: 
#        150
#        17456
#        33767
#        47488
#        66498
#        85855
#        103696
#        121702
#        142214
#        162902
#        183703
#        203728
#
# Disc length: 2917 seconds
#
# Revision: 0
# Processed by: cddbd v1.5.2PL0 Copyright (c) Steve Scherf et al.
# Submitted via: ExactAudioCopy v0.99pb4
#
DISCID=9e0b630c
DTITLE=Chris Knight - Heart of Stone
DYEAR=2008
DGENRE=Country
TTITLE0=Home Sick Gypsy
TTITLE1=Hell Ain't Half Full
TTITLE2=Something To Keep Me Going
TTITLE3=Heart of Stone
TTITLE4=Danville
TTITLE5=Another Dollar
TTITLE6=Almost There
TTITLE7=Crooked Road
TTITLE8=Maria
TTITLE9=Miles to Memphis
TTITLE10=My Old Cars
TTITLE11=Go On Home
EXTD=
EXTT0=
EXTT1=
EXTT2=
EXTT3=
EXTT4=
EXTT5=
EXTT6=
EXTT7=
EXTT8=
EXTT9=
EXTT10=
EXTT11=
PLAYORDER=
